<?xml version="1.0" encoding="utf-8"?>
<!-- Generator: Adobe Illustrator 27.9.0, SVG Export Plug-In . SVG Version: 6.00 Build 0)  -->
<svg version="1.1" id="inspeccion_svg" xmlns="http://www.w3.org/2000/svg" xmlns:xlink="http://www.w3.org/1999/xlink" x="0px"
	 y="0px" viewBox="0 0 1080 1080" style="enable-background:new 0 0 1080 1080;" xml:space="preserve">
<style type="text/css">
	.st0{clip-path:url(#SVGID_00000097467030555084317620000008355399307876607640_);fill:#E30615;}
</style>
<g>
	<defs>
		<rect id="SVGID_1_" width="1080" height="1080"/>
	</defs>
	<clipPath id="SVGID_00000057861017720948496440000012411794732186761088_">
		<use xlink:href="#SVGID_1_"  style="overflow:visible;"/>
	</clipPath>
	<path style="clip-path:url(#SVGID_00000057861017720948496440000012411794732186761088_);fill:#E30615;" d="M538.8,934.2
		c-119.2,0-238.4,0-357.5,0c-35.4,0-36.9-1.9-36.9-37.3c0-16.3,0-32.5,0-48.8c0-13.9,6.7-21.1,20.6-21.1c8.6,0,17.7-0.5,26.3-0.5
		c236,0,471.4,0,707.4,0c34.9,0,36.9,1.9,36.4,37.3c0,14.4,0.5,28.7-0.5,43.1c-1,21.1-6.2,26.8-27.3,26.8c-38.3,0.5-76.6,0-114.9,0
		C707.8,934.2,623.1,934.2,538.8,934.2z"/>
	<path style="clip-path:url(#SVGID_00000057861017720948496440000012411794732186761088_);fill:#E30615;" d="M540.3,185.7
		c-91.4-4.8-165.6,76.1-162.7,161.8c3.4,91.4,71.8,161.8,162.7,161.3c90-0.5,161.8-73.2,161.3-163.2
		C701.6,256.5,627.4,181.4,540.3,185.7z M540.3,462.3c-64.6,0.5-113.4-49.8-115.8-114.9c-1.9-60.8,50.7-118.7,115.8-114.9
		c62.2-3.4,114.4,50.3,114.9,113.9C655.1,410.2,604.4,461.8,540.3,462.3z"/>
	<path style="clip-path:url(#SVGID_00000057861017720948496440000012411794732186761088_);fill:#E30615;" d="M556.1,659.5h-33
		c-8.1,0-15.8,5.3-18.2,13.4l-33.5,110.6c-3.8,12.4,5.3,24.4,18.2,24.4h100c12.9,0,22-12.4,18.2-24.4l-33.5-110.6
		C571.8,664.8,564.7,659.5,556.1,659.5z"/>
	<path style="clip-path:url(#SVGID_00000057861017720948496440000012411794732186761088_);fill:#E30615;" d="M572.8,630.8l16.8-29.2
		c7.2-12.4-1.9-28.7-16.3-28.7h-67c-14.8,0-23.9,15.8-16.3,28.7l16.8,29.2c3.4,5.7,9.6,9.6,16.3,9.6h33.5
		C563.2,640.4,569.5,636.5,572.8,630.8z"/>
	<path style="clip-path:url(#SVGID_00000057861017720948496440000012411794732186761088_);fill:#E30615;" d="M232.5,777.3h-7.7
		L197,695.5c-1-3.4-4.8-5.3-8.1-3.8l-4.8,1.4c-3.4,1-5.3,4.8-3.8,8.1l25.8,76.1h-2.9c-3.4,0-6.2,2.9-6.2,6.2v23
		c0,3.4,2.9,6.2,6.2,6.2H233c3.4,0,6.2-2.9,6.2-6.2v-23C238.7,780.1,236.3,777.3,232.5,777.3z"/>
	<path style="clip-path:url(#SVGID_00000057861017720948496440000012411794732186761088_);fill:#E30615;" d="M232.5,777.3h-7.7
		L197,695.5c-1-3.4-4.8-5.3-8.1-3.8l-4.8,1.4c-3.4,1-5.3,4.8-3.8,8.1l25.8,76.1h-2.9c-3.4,0-6.2,2.9-6.2,6.2v23
		c0,3.4,2.9,6.2,6.2,6.2H233c3.4,0,6.2-2.9,6.2-6.2v-23C238.7,780.1,236.3,777.3,232.5,777.3z"/>
	<path style="clip-path:url(#SVGID_00000057861017720948496440000012411794732186761088_);fill:#E30615;" d="M873.9,764.8H860v-23.5
		c0-21.5-17.2-38.8-38.8-38.8h-1.4c-0.5-3.4-1.4-10.1-5.3-10.1h-6.2c-3.4,0-4.3,6.2-4.8,10.1h-1.4c-21.5,0-38.8,17.2-38.8,38.8v23.5
		h-13.9c-9.1,0-16.3,7.2-16.3,16.3v15.3c0,9.1,7.2,16.3,16.3,16.3h124.4c9.1,0,16.3-7.2,16.3-16.3v-15.3
		C890.1,772.5,883,764.8,873.9,764.8z"/>
	<path style="clip-path:url(#SVGID_00000057861017720948496440000012411794732186761088_);fill:#E30615;" d="M754.7,705.9v5.7
		c0,1.9,2.4,2.9,3.8,1.4c7.2-8.6,17.2-20.1,29.2-22.5c3.4-0.5,5.7-3.8,5.7-7.2c-4.8-85.7-76.6-148.4-163.2-148.4H449.8
		c-90,0-163.7,73.7-163.7,163.7v104.3c0,5.3,4.3,9.6,9.6,9.6h19.6c4.8,0,9.1-4.3,9.1-9.6v-96.7c0-75.6,62.2-137.8,137.8-137.8h154.6
		C692.5,568.6,754.7,629.8,754.7,705.9z"/>
	<path style="clip-path:url(#SVGID_00000057861017720948496440000012411794732186761088_);fill:#E30615;" d="M797.3,145H668.5h-246
		H293.8c-69.9,0-124.4,60.8-117.3,130.2l52.2,491.1c0,1.9,1.9,3.4,3.4,3.4h7.7c4.8,0,9.1,3.8,9.1,9.1v30.6c0,1.9,1.4,3.4,3.4,3.4
		h14.4c1.9,0,3.4-1.4,3.4-3.4V717v-0.5l-47.4-448c-4.8-43.6,29.7-81.4,73.2-81.4h125.9h4.8c5.3,0,11-1.4,15.3-4.3
		c28.7-17.2,62.2-24.4,98.1-24.4c35.4,0,68,7.7,96.7,24.4c4.8,2.9,10.1,4.3,15.3,4.3h16.3h126.4c43.6,0,77.5,37.8,73.2,81.4
		l-44,419.3c0,1,0.5,1.9,1.4,1.9c16.8,0.5,31.6,9.6,39.7,23c1,1.4,2.9,1,2.9-1l45.9-436.5C921.7,205.8,867.2,145,797.3,145z"/>
</g>
</svg>
