<?xml version="1.0" encoding="utf-8"?>
<!-- Generator: Adobe Illustrator 27.9.0, SVG Export Plug-In . SVG Version: 6.00 Build 0)  -->
<svg version="1.1" id="profesores" xmlns="http://www.w3.org/2000/svg" xmlns:xlink="http://www.w3.org/1999/xlink" x="0px" y="0px"
	 viewBox="0 0 1080 1080" style="enable-background:new 0 0 1080 1080;" xml:space="preserve">
<style type="text/css">
	.st0{clip-path:url(#SVGID_00000034088241436500958610000002017240180035217560_);}
	.st1{fill:#E30615;}
</style>
<g id="profesores_x5F_frame">
	<defs>
		<rect id="SVGID_1_" width="1080" height="1080"/>
	</defs>
	<clipPath id="SVGID_00000071544771853428068250000005053057079998527654_">
		<use xlink:href="#SVGID_1_"  style="overflow:visible;"/>
	</clipPath>
	<g style="clip-path:url(#SVGID_00000071544771853428068250000005053057079998527654_);">
		<path class="st1" d="M376.9,624.3c84.9-0.5,152.6-69.1,152.1-153.9c0-84-69.9-154.8-152.1-150.8c-86.2-4.5-156.2,71.8-153.5,152.6
			C226.6,558.4,291.1,624.8,376.9,624.3z M376.9,363.8c58.7-3.2,107.9,47.4,108.4,107.4c-0.1,60.2-47.9,108.9-108.4,109.4
			c-60.9,0.5-107-47-109.3-108.4C265.8,414.9,315.5,360.2,376.9,363.8z"/>
		<path class="st1" d="M409,779.2c-2.3-7.7-9.1-12.6-17.2-12.6h-31.2c-7.7,0-14.9,5-17.2,12.6l-31.6,104.3c-3.6,11.7,5,23,17.2,23
			h94.4c12.2,0,20.8-11.7,17.2-23L409,779.2z"/>
		<path class="st1" d="M360.7,748.5h31.6c6.3,0,12.1-3.6,15.3-9l15.8-27.5c6.8-11.7-1.8-27.1-15.3-27.1h-63.2
			c-14,0-22.6,14.9-15.3,27.1l15.8,27.5C348.6,744.9,354.4,748.5,360.7,748.5z"/>
		<path class="st1" d="M659.3,251.2h-238c-4.7,0-8.5,3.8-8.5,8.5v14c0,4.7,3.8,8.5,8.5,8.5h238c4.7,0,8.5-3.8,8.5-8.5v-14
			C667.8,255,664,251.2,659.3,251.2z"/>
		<path class="st1" d="M796.5,282.2c4.7,0,8.5-3.8,8.5-8.5v-14c0-4.7-3.8-8.5-8.5-8.5h-92.6c-4.7,0-8.5,3.8-8.5,8.5v14
			c0,4.7,3.8,8.5,8.5,8.5H796.5z"/>
		<path class="st1" d="M656,512.1c4.7,0,8.5-3.8,8.5-8.5v-14c0-4.7-3.8-8.5-8.5-8.5h-92.6c-4.7,0-8.5,3.8-8.5,8.5v14
			c0,4.7,3.8,8.5,8.5,8.5H656z"/>
		<path class="st1" d="M734.8,481.1c-4.7,0-8.5,3.8-8.5,8.5v14c0,4.7,3.8,8.5,8.5,8.5h92.6c4.7,0,8.5-3.8,8.5-8.5v-14
			c0-4.7-3.8-8.5-8.5-8.5L734.8,481.1L734.8,481.1z"/>
		<path class="st1" d="M574.2,374.3v14c0,4.7,3.8,8.5,8.5,8.5h238c4.7,0,8.5-3.8,8.5-8.5v-14c-0.1-4.7-3.9-8.5-8.5-8.5h-238
			C578,365.8,574.2,369.6,574.2,374.3z"/>
		<path class="st1" d="M650.9,765.9c-40.3,0-72.9,32.8-72.9,73.2c0,40.5,32.6,73.2,72.9,73.2c40.3,0,72.9-32.8,72.9-73.2
			C723.8,798.7,691.2,765.9,650.9,765.9z M650.9,883.8c-24.6,0-44.5-20-44.5-44.7s19.9-44.7,44.5-44.7s44.5,20,44.5,44.7
			C695.3,863.8,675.4,883.8,650.9,883.8z"/>
		<path class="st1" d="M584.4,774.6c5.7-6,12.1-11.1,19.2-15.4c2.8-1.6,4-5,2.9-8c-21.6-59.3-78.7-102-145.2-102H291.6
			c-84.9,0-154.4,69.5-154.4,154.4V902c0,5,4.1,9,9,9h18.5c4.5,0,8.6-4.1,8.6-9v-91.2c0-71.5,58.5-130,130-130h145.8
			c57.8,0,107.3,38.5,124,91.1C574.6,776.8,580.8,778.2,584.4,774.6z"/>
		<path class="st1" d="M672.1,746.1l7.4,1.1c4.8,0.7,9.3-2.6,9.9-7.5l30-209.4c0.6-4.8-2.7-9.2-7.5-9.9l-7.4-1.1
			c-4.8-0.6-9.2,2.7-9.9,7.5l-30,209.4C664,741,667.3,745.4,672.1,746.1z"/>
		<path class="st1" d="M538.8,553.1c-4,7.9-8.5,15.5-13.6,22.7c-1.4,2,0.1,4.8,2.5,4.8h142c2.3,0,4.2-1.7,4.5-3.9l2.9-20.2
			c0.3-2.7-1.8-5.1-4.5-5.1H541.5C540.3,551.4,539.3,552.1,538.8,553.1z"/>
		<path class="st1" d="M910.2,167.6H314.7c-22,0-39.9,17.9-39.9,39.9v106.3c0,2.4,2.7,3.9,4.7,2.6c8.7-5.5,18-10.2,27.6-14.1
			c1.2-0.5,1.9-1.6,1.9-2.8v-80.8c0-12,9.8-21.8,21.8-21.8h555.9c12,0,21.8,9.8,21.8,21.8v310.9c0,12-9.8,21.8-21.8,21.8h-153
			c-2.3,0-4.2,1.7-4.5,3.9l-2.9,20.2c-0.4,2.7,1.7,5.2,4.5,5.2h179.4c18,0,32.6-14.6,32.6-32.6V200.3
			C942.8,182.2,928.2,167.6,910.2,167.6z"/>
	</g>
</g>
</svg>
