<?xml version="1.0" encoding="utf-8"?>
<!-- Generator: Adobe Illustrator 27.9.0, SVG Export Plug-In . SVG Version: 6.00 Build 0)  -->
<svg version="1.1" id="dece_svg" xmlns="http://www.w3.org/2000/svg" xmlns:xlink="http://www.w3.org/1999/xlink" x="0px" y="0px"
	 viewBox="0 0 1080 1080" style="enable-background:new 0 0 1080 1080;" xml:space="preserve">
<style type="text/css">
	.st0{clip-path:url(#SVGID_00000154406206395046890710000014244980923203361416_);fill:#E30615;}
</style>
<g>
	<defs>
		<rect id="SVGID_1_" width="1080" height="1080"/>
	</defs>
	<clipPath id="SVGID_00000176759575117646973530000005525409395030074282_">
		<use xlink:href="#SVGID_1_"  style="overflow:visible;"/>
	</clipPath>
	<path style="clip-path:url(#SVGID_00000176759575117646973530000005525409395030074282_);fill:#E30615;" d="M438.2,134.2
		c-111.6-5.8-202.2,92.9-198.7,197.5c4.1,111.6,87.6,197.5,198.7,196.9c109.9-0.6,197.5-89.4,196.9-199.2
		C635.1,220.7,544.6,129.1,438.2,134.2z M438.3,490.3c-89.1,0.7-156.5-68.7-159.9-158.5C275.8,248,348.5,168,438.3,173.2
		c85.9-4.7,157.8,69.3,158.5,157.1C596.7,418.4,526.8,489.6,438.3,490.3z"/>
	<path style="clip-path:url(#SVGID_00000176759575117646973530000005525409395030074282_);fill:#E30615;" d="M457.5,712.8h-40.4
		c-10,0-19.3,6.5-22.3,16.3l-40.9,135c-4.7,15.1,6.5,29.8,22.3,29.8h122.2c15.8,0,26.9-15.1,22.3-29.8l-40.9-135
		C476.8,719.2,468,712.8,457.5,712.8z"/>
	<path style="clip-path:url(#SVGID_00000176759575117646973530000005525409395030074282_);fill:#E30615;" d="M477.9,677.8l20.5-35.6
		c8.8-15.1-2.3-35.1-19.8-35.1h-81.8c-18.1,0-29.3,19.3-19.8,35.1l20.5,35.6c4.1,7,11.6,11.6,19.8,11.6h40.9
		C466.3,689.4,473.8,684.8,477.9,677.8z"/>
	<path style="clip-path:url(#SVGID_00000176759575117646973530000005525409395030074282_);fill:#E30615;" d="M731.6,703.3
		c3.6-2.1,5.2-6.5,3.8-10.4c-28-76.8-101.9-132-187.9-132H327.8c-109.9,0-199.9,90-199.9,199.9v127.4c0,6.5,5.3,11.6,11.6,11.6h23.9
		c5.8,0,11.1-5.3,11.1-11.6V770.1c0-92.6,75.7-168.3,168.3-168.3h188.7c74.8,0,138.9,49.8,160.5,117.9c1.9,6.3,10,8.2,14.6,3.5
		C714.2,715.4,722.5,708.8,731.6,703.3z"/>
	<path style="clip-path:url(#SVGID_00000176759575117646973530000005525409395030074282_);fill:#E30615;" d="M857.5,705
		c74.6,0,136.2-55.5,145.7-127.5c0.1-0.5,0.1-0.9,0.2-1.4c0.1-0.6,0.1-1.3,0.2-1.9c0.1-0.9,0.2-1.8,0.3-2.7c0-0.3,0.1-0.6,0.1-0.9
		c0.3-4.1,0.5-8.2,0.5-12.4c0-81.3-65.7-146.9-146.9-146.9s-147,65.7-147,147c0,13.6,1.8,26.8,5.3,39.3c0.1,0.2,0.1,0.4,0.2,0.6
		c0.1,0.4,0.3,0.9,0.4,1.3C734.3,660.5,790.7,705,857.5,705z M857.5,442.9c57.5,0,105.1,41.9,113.9,96.5
		c-80.6,3.9-148.7-23.8-175.3-68.9c-9.2,14.2-22.7,24.8-38.3,29.1C778,465.6,814.9,442.9,857.5,442.9z M744.3,535.2
		c19.5-1.8,36.6-12.4,47.9-28.7c33,40.5,101.5,63.9,180.7,57.5c-3.2,61.4-53.6,110-115.3,110c-63.9,0-115.3-51.8-115.3-115.7
		C742.2,550.5,742.9,542.6,744.3,535.2z"/>
	<path style="clip-path:url(#SVGID_00000176759575117646973530000005525409395030074282_);fill:#E30615;" d="M969.5,799h-75.6
		c-5,0-9,4-9,9l0,0c0,5,4,9,9,9h75.5c5,0,9-4,9-9C978.5,803,974.4,799,969.5,799z"/>
	<path style="clip-path:url(#SVGID_00000176759575117646973530000005525409395030074282_);fill:#E30615;" d="M722.3,896.3v-123
		c0-24.5,19.9-44.3,44.3-44.3h41.3c1.7,0,3.3,0.9,4.2,2.4l39.2,68c0.4,0.7,0.6,1.6,0.6,2.4v94.5c0,2,1.7,3.7,3.7,3.7h10.6
		c2,0,3.7-1.7,3.7-3.7v-94.5c0-0.8,0.2-1.7,0.6-2.4l39.2-68c0.9-1.5,2.5-2.4,4.2-2.4h34.4c24.5,0,44.3,19.9,44.3,44.3v123
		c0,2,1.7,3.7,3.7,3.7h10.9c2,0,3.7-1.7,3.7-3.7V773.1c0-34.3-27.8-62.1-62.1-62.1H766.1c-34.3,0-62.1,27.8-62.1,62.1v123.2
		c0,2,1.7,3.7,3.7,3.7h10.9C720.6,900,722.3,898.3,722.3,896.3z M886.3,736.3l-21.1,36.6c-1.9,3.2-6.5,3.2-8.4,0l-21.1-36.6
		c-1.9-3.2,0.5-7.3,4.2-7.3h42.2C885.8,729,888.2,733,886.3,736.3z"/>
</g>
</svg>
