<?xml version="1.0" encoding="utf-8"?>
<!-- Generator: Adobe Illustrator 27.9.0, SVG Export Plug-In . SVG Version: 6.00 Build 0)  -->
<svg version="1.1" id="planificaciones_svg" xmlns="http://www.w3.org/2000/svg" xmlns:xlink="http://www.w3.org/1999/xlink"
	 x="0px" y="0px" viewBox="0 0 1080 1080" style="enable-background:new 0 0 1080 1080;" xml:space="preserve">
<style type="text/css">
	.st0{clip-path:url(#SVGID_00000085249555033822895610000006725946156381576093_);fill:#E30615;}
</style>
<g>
	<defs>
		<rect id="SVGID_1_" width="1080" height="1080"/>
	</defs>
	<clipPath id="SVGID_00000010302109298817575540000013024007224750057352_">
		<use xlink:href="#SVGID_1_"  style="overflow:visible;"/>
	</clipPath>
	<path style="clip-path:url(#SVGID_00000010302109298817575540000013024007224750057352_);fill:#E30615;" d="M854.9,448.3h-64.6
		c-2.5,0-5.1-1.5-5.6-4.1l-1.5-5.6c-1.5-4.1-5.1-6.6-9.2-6.6H663.2c-4.1,0-8.1,2.5-9.2,6.6l-1.5,5.6c-1,2.5-3.1,4.1-5.6,4.1h-64.6
		c-32.5,0-59,26.4-59,59v397.1c0,32.5,26.4,59,59,59h274.6c32.5,0,59-26.4,59-59V507.2C913.8,474.7,887.4,448.3,854.9,448.3z
		 M864.5,895.2c0,14.2-11.7,25.4-25.4,25.4H595.5c-14.2,0-25.4-11.7-25.4-25.4V516.9c0-14.2,11.7-25.4,25.4-25.4h31
		c4.1,0,6.6,4.1,5.6,7.6l-0.5,2c-2,6.6,2.5,13.2,9.2,13.2h152.5c6.6,0,11.7-6.6,9.2-13.2l-0.5-2c-1-4.1,1.5-7.6,5.6-7.6h31
		c14.2,0,25.4,11.7,25.4,25.4v378.3H864.5z"/>
	<path style="clip-path:url(#SVGID_00000010302109298817575540000013024007224750057352_);fill:#E30615;" d="M506.6,727.9
		c0-5.1-4.1-9.2-9.2-9.2h-32.5c-10.7,0-19.8,7.1-22.9,17.3l-42.7,139.8c-4.6,15.3,7.1,31,22.9,31h75.2c5.1,0,9.2-4.1,9.2-9.2
		L506.6,727.9L506.6,727.9z"/>
	<path style="clip-path:url(#SVGID_00000010302109298817575540000013024007224750057352_);fill:#E30615;" d="M506.1,618.6
		c0-5.1-4.1-9.2-9.2-9.2h-53.4c-18.8,0-30,20.3-20.8,36.1l21.4,36.6c4.1,7.6,12.2,12.2,20.8,12.2h32c5.1,0,9.2-4.1,9.2-9.2V618.6z"
		/>
	<path style="clip-path:url(#SVGID_00000010302109298817575540000013024007224750057352_);fill:#E30615;" d="M497.4,560.6H371.8
		c-114.4,0-208,93.6-208,208v132.2c0,6.6,5.6,12.2,12.2,12.2h24.4c6.6,0,12.2-5.6,12.2-12.2V778.2c0-96.1,78.8-174.9,174.9-174.9
		h109.8c5.1,0,8.6-4.1,8.6-8.6v-24.9C506.1,564.7,502,560.6,497.4,560.6z"/>
	<path style="clip-path:url(#SVGID_00000010302109298817575540000013024007224750057352_);fill:#E30615;" d="M506.1,498.1
		c0-11.7,3.1-22.9,8.6-32.5c-9.2,2-18.8,3.1-28.5,3.1c-82.4,0-143.9-63.6-146.9-145.9c-2.5-77.3,64.6-150.5,146.9-145.9
		c78.8-4.1,145.4,64.1,145.9,144.4c0,44.7-19.3,84.9-50.8,111.9H625c4.1,0,7.1-2.5,8.6-6.1l1.5-4.6c1.5-4.6,5.6-7.6,10.2-7.6h23.9
		c14.2-28.5,22.4-60.5,21.9-94.6c0-112.9-94.1-208.5-204.4-202.9c-115.9-6.1-210.5,96.6-206.4,205.4
		c3.6,115.9,90.5,205.4,206.4,204.9c6.6,0,13.2-0.5,19.3-1L506.1,498.1L506.1,498.1z"/>
	<path style="clip-path:url(#SVGID_00000010302109298817575540000013024007224750057352_);fill:#E30615;" d="M831,595.7H682
		c-1.5,0-3.1-1.5-3.1-3.1v-10.2c0-1.5,1.5-3.1,3.1-3.1h149c1.5,0,3.1,1.5,3.1,3.1v10.2C834,594.2,832.5,595.7,831,595.7z"/>
	<path style="clip-path:url(#SVGID_00000010302109298817575540000013024007224750057352_);fill:#E30615;" d="M650.5,636.4h-49.8
		c-4.6,0-8.6,3.6-8.6,8.6v49.8c0,4.6,3.6,8.6,8.6,8.6h49.8c4.6,0,8.6-3.6,8.6-8.6V645C658.6,640.4,655,636.4,650.5,636.4z
		 M650.5,692.8c0,1-1,2-2,2h-45.8c-1,0-2-1-2-2V647c0-1,1-2,2-2h45.8c1,0,2,1,2,2V692.8z"/>
	<path style="clip-path:url(#SVGID_00000010302109298817575540000013024007224750057352_);fill:#E30615;" d="M831,677.6H682
		c-1.5,0-3.1-1.5-3.1-3.1v-10.2c0-1.5,1.5-3.1,3.1-3.1h149c1.5,0,3.1,1.5,3.1,3.1v10.2C834,676,832.5,677.6,831,677.6z"/>
	<path style="clip-path:url(#SVGID_00000010302109298817575540000013024007224750057352_);fill:#E30615;" d="M650.5,718.2h-49.8
		c-4.6,0-8.6,3.6-8.6,8.6v49.8c0,4.6,3.6,8.6,8.6,8.6h49.8c4.6,0,8.6-3.6,8.6-8.6v-49.8C658.6,722.3,655,718.2,650.5,718.2z
		 M650.5,774.7c0,1-1,2-2,2h-45.8c-1,0-2-1-2-2v-45.8c0-1,1-2,2-2h45.8c1,0,2,1,2,2V774.7z"/>
	<path style="clip-path:url(#SVGID_00000010302109298817575540000013024007224750057352_);fill:#E30615;" d="M831,759.4H682
		c-1.5,0-3.1-1.5-3.1-3.1v-10.2c0-1.5,1.5-3.1,3.1-3.1h149c1.5,0,3.1,1.5,3.1,3.1v10.2C834,757.9,832.5,759.4,831,759.4z"/>
	<path style="clip-path:url(#SVGID_00000010302109298817575540000013024007224750057352_);fill:#E30615;" d="M650.5,800.1h-49.8
		c-4.6,0-8.6,3.6-8.6,8.6v49.8c0,4.6,3.6,8.6,8.6,8.6h49.8c4.6,0,8.6-3.6,8.6-8.6v-49.8C658.6,804.2,655,800.1,650.5,800.1z
		 M650.5,856.5c0,1-1,2-2,2h-45.8c-1,0-2-1-2-2v-45.8c0-1,1-2,2-2h45.8c1,0,2,1,2,2V856.5z"/>
	<path style="clip-path:url(#SVGID_00000010302109298817575540000013024007224750057352_);fill:#E30615;" d="M831,841.3H682
		c-1.5,0-3.1-1.5-3.1-3.1V828c0-1.5,1.5-3.1,3.1-3.1h149c1.5,0,3.1,1.5,3.1,3.1v10.2C834,839.7,832.5,841.3,831,841.3z"/>
	<path style="clip-path:url(#SVGID_00000010302109298817575540000013024007224750057352_);fill:#E30615;" d="M640.3,588.1
		l-24.9-18.3c-2-1.5-5.6-1-7.1,1l-6.1,8.6c-1.5,2-1,5.6,1,7.1l29,21.4l12.7,9.2c2,1.5,5.6,1,7.1-1l9.2-12.7l48.3-66.1
		c1.5-2,1-5.6-1-7.1l-8.6-6.1c-2-1.5-5.6-1-7.1,1l-45.3,61.5C645.9,589.1,642.3,589.6,640.3,588.1z"/>
	<path style="clip-path:url(#SVGID_00000010302109298817575540000013024007224750057352_);fill:#E30615;" d="M652.5,621.1
		c-0.5,0-0.5,0-1,0s-0.5,0-1,0h-54.9c-1.5,0-2.5-1-2.5-2.5v-55.9c0-1.5,1-2.5,2.5-2.5h55.9c1.5,0,2.5,1,2.5,2.5v9.2l9.7-12.7v-0.5
		c-0.5-5.1-5.1-9.2-10.2-9.2H593c-5.6,0-10.2,4.6-10.2,10.2v60.5c0,5.6,4.6,10.2,10.2,10.2h60.5c5.6,0,10.2-4.6,10.2-10.2v-14.7
		l-10.2,13.7C653.5,620.6,653,620.6,652.5,621.1z"/>
</g>
</svg>
