<?xml version="1.0" encoding="utf-8"?>
<!-- Generator: Adobe Illustrator 27.9.0, SVG Export Plug-In . SVG Version: 6.00 Build 0)  -->
<svg version="1.1" id="secretaria_svg" xmlns="http://www.w3.org/2000/svg" xmlns:xlink="http://www.w3.org/1999/xlink" x="0px"
	 y="0px" viewBox="0 0 1080 1080" style="enable-background:new 0 0 1080 1080;" xml:space="preserve">
<style type="text/css">
	
		.st0{opacity:0.26;clip-path:url(#SVGID_00000074430938353507251290000004588179808144408990_);fill:#E30615;enable-background:new    ;}
	.st1{clip-path:url(#SVGID_00000074430938353507251290000004588179808144408990_);fill:#E30615;}
</style>
<g>
	<defs>
		<rect id="SVGID_1_" width="1080" height="1080"/>
	</defs>
	<clipPath id="SVGID_00000119826400778928892010000011396753491842104475_">
		<use xlink:href="#SVGID_1_"  style="overflow:visible;"/>
	</clipPath>
	
		<path style="opacity:0.26;clip-path:url(#SVGID_00000119826400778928892010000011396753491842104475_);fill:#E30615;enable-background:new    ;" d="
		M540,186c0,0.3,0,0.5,0,0.7C540,186.5,540,186.2,540,186z"/>
	
		<path style="opacity:0.26;clip-path:url(#SVGID_00000119826400778928892010000011396753491842104475_);fill:#E30615;enable-background:new    ;" d="
		M540.5,187c-0.7,0-0.9,0-1-0.3C539.6,187.1,539.8,187.3,540.5,187z"/>
	<path style="clip-path:url(#SVGID_00000119826400778928892010000011396753491842104475_);fill:#E30615;" d="M345.5,573H382
		c2.5,0,4.5-2,4.5-4.5v-65.2c0-3.9,4.7-6,7.5-3.3c37.9,35.5,88.9,56.7,146.7,56.4c56.3-0.3,107.2-21.9,145.3-57.1
		c2.9-2.6,7.5-0.6,7.5,3.3v65.9c0,2.5,2,4.5,4.5,4.5h72.3c3.2,0,5.4-3.3,4.1-6.3c-9.1-21.1-17.4-77-18.7-86.4
		c-0.1-0.9-0.2-1.8-0.2-2.7c0,0-0.4-135.7-0.4-138.2c0-118.4-98.6-212.5-214.5-212.5C417.5,126.9,324.3,228,324.3,342
		c0,2-0.1,106-0.1,106c0.2,4.3,0.2,8.7,0.2,13.1c0,4.9-0.1,9.7-0.3,14.5v3.3c0,0.1,0,0.3,0,0.4c-0.5,3.9-8.9,65.2-18.6,87.5
		c-1.3,3,0.9,6.3,4.1,6.3L345.5,573z M645.3,304.4c99.5,58.4-4.8,194.6-104.8,194.6c-60.5,0-110.5-36.9-135.9-86.8
		c-1.3-2.5,0.1-5.5,2.7-6.3c104.2-31.7,183-86.4,203.9-138.4c1.5-3.7,6.8-3.8,8.3-0.1C626.1,283.6,638.5,300.2,645.3,304.4z
		 M540.7,189.2c17.7,0,37.3,2.3,54.8,8.5c3.5,1.2,4,5.9,1,8c0,0-9.9,6.3-15.6,17.2c-18.8,49.6-90.7,101.9-187.4,134.5
		c-8.4,1.6-6.7-9.5-6.7-15.5C386.7,261.1,444.5,191,540.7,189.2z"/>
	<path style="clip-path:url(#SVGID_00000119826400778928892010000011396753491842104475_);fill:#E30615;" d="M543.3,618l21.6-24
		c2.6-2.9,0.6-7.5-3.3-7.5h-43.2c-3.9,0-5.9,4.6-3.3,7.5l21.6,24C538.5,619.9,541.5,619.9,543.3,618z"/>
	<path style="clip-path:url(#SVGID_00000119826400778928892010000011396753491842104475_);fill:#E30615;" d="M514.7,665.6
		l-105.4,22.5c-8.8,1.9-16.4-6.5-13.6-15.1L429,570.6c2.8-8.6,13.8-10.9,19.8-4.2l72.1,80C527,653,523.5,663.8,514.7,665.6z"/>
	<path style="clip-path:url(#SVGID_00000119826400778928892010000011396753491842104475_);fill:#E30615;" d="M565.3,665.6
		l105.4,22.5c8.8,1.9,16.4-6.5,13.6-15.1L651,570.6c-2.8-8.6-13.8-10.9-19.8-4.2l-72.1,80C553,653,556.5,663.8,565.3,665.6z"/>
	<path style="clip-path:url(#SVGID_00000119826400778928892010000011396753491842104475_);fill:#E30615;" d="M575.1,693l-27.4,75.4
		c-2.6,7.2-12.8,7.2-15.4,0L504.9,693c-1.4-3.9-5.5-6.1-9.5-5.2l-72.5,15.9c-4.8,1.1-7.6,6.2-6,10.8l72.8,200
		c1.2,3.2,4.3,5.4,7.7,5.4h85.1c3.5,0,6.5-2.2,7.7-5.4l72.8-200c1.7-4.7-1.1-9.8-6-10.8l-72.5-15.9
		C580.6,686.9,576.5,689.1,575.1,693z"/>
	<path style="clip-path:url(#SVGID_00000119826400778928892010000011396753491842104475_);fill:#E30615;" d="M753.5,850H651.4
		c-7.4,0-13.4-6-13.4-13.4v-4.1c0-7.4,6-13.4,13.4-13.4h102.1c7.4,0,13.4,6,13.4,13.4v4.1C767,844,760.9,850,753.5,850z"/>
	<path style="clip-path:url(#SVGID_00000119826400778928892010000011396753491842104475_);fill:#E30615;" d="M726.1,693.5
		c0.3,0.8,0.7,1.5,1.3,2c44.1,38.1,72,94.4,72,157.3v97.3c0,5.5,4.4,9.9,9.9,9.9H847c5.5,0,9.9-4.4,9.9-9.9v-96
		c0-105-60.5-195.9-148.5-239.7c-3.6-1.8-7.5,1.6-6.3,5.4L726.1,693.5z"/>
	<path style="clip-path:url(#SVGID_00000119826400778928892010000011396753491842104475_);fill:#E30615;" d="M380,616.9
		c0.9-2.9-2.1-5.6-4.8-4.3C285.2,655.7,223,747.6,223,854v92.5c0,7.4,6,13.4,13.4,13.4h30.7c7.4,0,13.4-6,13.4-13.4v-93.8
		c0-63.8,28.8-120.8,74-158.9c0.5-0.4,0.9-1,1.1-1.6L380,616.9z"/>
</g>
</svg>
